<?xml version="1.0" encoding="UTF-8"?>
<svg width="512" height="512" viewBox="0 0 512 512" xmlns="http://www.w3.org/2000/svg">
  <!-- Background circle -->
  <circle cx="256" cy="256" r="256" fill="#ff5252"/>
  
  <!-- Letter B -->
  <path d="M172 355V155h84c20 0 35.4 4 46.2 12s16.2 19.9 16.2 35.6c0 10.9-3.1 20.1-9.4 27.5-6.3 7.4-14.5 12.2-24.6 14.5v1.5c13.1 1.6 23.3 6.8 30.7 15.6 7.4 8.8 11.1 19.7 11.1 32.8 0 18.7-6.4 33.3-19.3 43.8-12.9 10.5-30.5 15.8-53 15.8H172zm58-62v28h30c6.7 0 11.9-1.5 15.7-4.6 3.8-3.1 5.7-7.5 5.7-13.2 0-7-5.7-10.9-17.1-11.9l-4.3-0.3H230zm0-33h23c13.6 0 20.4-5.3 20.4-16 0-5.6-1.7-9.6-5.2-12.2-3.5-2.6-9-3.8-16.5-3.8H230v32z" fill="white"/>
  
  <!-- Accent details -->
  <path d="M340 155v45h-25v-45h25zm0 157v43h-25v-43h25z" fill="#f39c12"/>
</svg> 